<?xml version="1.0" encoding="UTF-8" standalone="no"?>
<!DOCTYPE svg PUBLIC "-//W3C//DTD SVG 1.1//EN"
 "http://www.w3.org/Graphics/SVG/1.1/DTD/svg11.dtd">
<!-- Generated by graphviz version 9.0.0 (20230911.1827)
 -->
<!-- Pages: 1 -->
<svg width="972pt" height="404pt"
 viewBox="0.00 0.00 971.51 404.00" xmlns="http://www.w3.org/2000/svg" xmlns:xlink="http://www.w3.org/1999/xlink">
<g id="graph0" class="graph" transform="scale(1 1) rotate(0) translate(4 400)">
<polygon fill="white" stroke="none" points="-4,4 -4,-400 967.51,-400 967.51,4 -4,4"/>
<!-- [root] azurerm_resource_group.example -->
<g id="node1" class="node">
<title>[root] azurerm_resource_group.example</title>
<polygon fill="none" stroke="black" points="355.54,-180 153.54,-180 153.54,-144 355.54,-144 355.54,-180"/>
<text text-anchor="middle" x="254.54" y="-156.95" font-family="Times,serif" font-size="14.00">azurerm_resource_group.example</text>
</g>
<!-- [root] azurerm_storage_account.example -->
<g id="node2" class="node">
<title>[root] azurerm_storage_account.example</title>
<polygon fill="none" stroke="black" points="715.41,-108 509.66,-108 509.66,-72 715.41,-72 715.41,-108"/>
<text text-anchor="middle" x="612.54" y="-84.95" font-family="Times,serif" font-size="14.00">azurerm_storage_account.example</text>
</g>
<!-- [root] azurerm_resource_group.example&#45;&gt;[root] azurerm_storage_account.example -->
<g id="edge1" class="edge">
<title>[root] azurerm_resource_group.example&#45;&gt;[root] azurerm_storage_account.example</title>
<path fill="none" stroke="black" d="M343.95,-143.52C395.1,-133.52 459.38,-120.95 512.24,-110.61"/>
<polygon fill="black" stroke="black" points="512.71,-114.09 521.85,-108.73 511.36,-107.22 512.71,-114.09"/>
</g>
<!-- [root] provider[&quot;registry.terraform.io/hashicorp/azurerm&quot;] -->
<g id="node3" class="node">
<title>[root] provider[&quot;registry.terraform.io/hashicorp/azurerm&quot;]</title>
<polygon fill="none" stroke="black" points="612.54,-36 324.95,-18 612.54,0 900.13,-18 612.54,-36"/>
<text text-anchor="middle" x="612.54" y="-12.95" font-family="Times,serif" font-size="14.00">provider[&quot;registry.terraform.io/hashicorp/azurerm&quot;]</text>
</g>
<!-- [root] azurerm_storage_account.example&#45;&gt;[root] provider[&quot;registry.terraform.io/hashicorp/azurerm&quot;] -->
<g id="edge2" class="edge">
<title>[root] azurerm_storage_account.example&#45;&gt;[root] provider[&quot;registry.terraform.io/hashicorp/azurerm&quot;]</title>
<path fill="none" stroke="black" d="M612.54,-71.7C612.54,-64.41 612.54,-55.73 612.54,-47.54"/>
<polygon fill="black" stroke="black" points="616.04,-47.62 612.54,-37.62 609.04,-47.62 616.04,-47.62"/>
</g>
<!-- [root] provider[&quot;registry.terraform.io/hashicorp/random&quot;] -->
<g id="node4" class="node">
<title>[root] provider[&quot;registry.terraform.io/hashicorp/random&quot;]</title>
<polygon fill="none" stroke="black" points="658.54,-180 373.84,-162 658.54,-144 943.24,-162 658.54,-180"/>
<text text-anchor="middle" x="658.54" y="-156.95" font-family="Times,serif" font-size="14.00">provider[&quot;registry.terraform.io/hashicorp/random&quot;]</text>
</g>
<!-- [root] random_string.random -->
<g id="node5" class="node">
<title>[root] random_string.random</title>
<polygon fill="none" stroke="black" points="809.16,-252 667.91,-252 667.91,-216 809.16,-216 809.16,-252"/>
<text text-anchor="middle" x="738.54" y="-228.95" font-family="Times,serif" font-size="14.00">random_string.random</text>
</g>
<!-- [root] random_string.random&#45;&gt;[root] azurerm_storage_account.example -->
<g id="edge6" class="edge">
<title>[root] random_string.random&#45;&gt;[root] azurerm_storage_account.example</title>
<path fill="none" stroke="black" d="M809.48,-227.25C887.74,-218.22 997.09,-196.04 952.54,-144 923.69,-110.31 813.92,-97.87 726.8,-93.36"/>
<polygon fill="black" stroke="black" points="727.16,-89.88 717,-92.89 726.82,-96.87 727.16,-89.88"/>
</g>
<!-- [root] random_string.random&#45;&gt;[root] provider[&quot;registry.terraform.io/hashicorp/random&quot;] -->
<g id="edge7" class="edge">
<title>[root] random_string.random&#45;&gt;[root] provider[&quot;registry.terraform.io/hashicorp/random&quot;]</title>
<path fill="none" stroke="black" d="M718.76,-215.7C708.69,-206.88 696.29,-196.03 685.36,-186.47"/>
<polygon fill="black" stroke="black" points="687.96,-184.09 678.13,-180.14 683.35,-189.36 687.96,-184.09"/>
</g>
<!-- [root] random_string.varx -->
<g id="node6" class="node">
<title>[root] random_string.varx</title>
<polygon fill="none" stroke="black" points="650.16,-252 526.91,-252 526.91,-216 650.16,-216 650.16,-252"/>
<text text-anchor="middle" x="588.54" y="-228.95" font-family="Times,serif" font-size="14.00">random_string.varx</text>
</g>
<!-- [root] random_string.varx&#45;&gt;[root] azurerm_resource_group.example -->
<g id="edge8" class="edge">
<title>[root] random_string.varx&#45;&gt;[root] azurerm_resource_group.example</title>
<path fill="none" stroke="black" d="M526.73,-217.85C523.97,-217.21 521.23,-216.6 518.54,-216 465.61,-204.27 406.46,-192.29 357.59,-182.69"/>
<polygon fill="black" stroke="black" points="358.33,-179.27 347.85,-180.79 356.99,-186.14 358.33,-179.27"/>
</g>
<!-- [root] random_string.varx&#45;&gt;[root] provider[&quot;registry.terraform.io/hashicorp/random&quot;] -->
<g id="edge9" class="edge">
<title>[root] random_string.varx&#45;&gt;[root] provider[&quot;registry.terraform.io/hashicorp/random&quot;]</title>
<path fill="none" stroke="black" d="M605.84,-215.7C614.49,-207.05 625.08,-196.46 634.5,-187.04"/>
<polygon fill="black" stroke="black" points="636.73,-189.76 641.32,-180.21 631.78,-184.81 636.73,-189.76"/>
</g>
<!-- [root] var.location -->
<g id="node7" class="node">
<title>[root] var.location</title>
<polygon fill="none" stroke="black" points="247.41,-324 173.66,-324 173.66,-288 253.41,-288 253.41,-318 247.41,-324"/>
<polyline fill="none" stroke="black" points="247.41,-324 247.41,-318"/>
<polyline fill="none" stroke="black" points="253.41,-318 247.41,-318"/>
<text text-anchor="middle" x="213.54" y="-300.95" font-family="Times,serif" font-size="14.00">var.location</text>
</g>
<!-- [root] provider[&quot;registry.terraform.io/hashicorp/azurerm&quot;] (close) -->
<g id="node8" class="node">
<title>[root] provider[&quot;registry.terraform.io/hashicorp/azurerm&quot;] (close)</title>
<ellipse fill="none" stroke="black" cx="254.54" cy="-234" rx="254.54" ry="18"/>
<text text-anchor="middle" x="254.54" y="-228.95" font-family="Times,serif" font-size="14.00">[root] provider[&quot;registry.terraform.io/hashicorp/azurerm&quot;] (close)</text>
</g>
<!-- [root] provider[&quot;registry.terraform.io/hashicorp/azurerm&quot;] (close)&#45;&gt;[root] azurerm_resource_group.example -->
<g id="edge3" class="edge">
<title>[root] provider[&quot;registry.terraform.io/hashicorp/azurerm&quot;] (close)&#45;&gt;[root] azurerm_resource_group.example</title>
<path fill="none" stroke="black" d="M254.54,-215.7C254.54,-208.41 254.54,-199.73 254.54,-191.54"/>
<polygon fill="black" stroke="black" points="258.04,-191.62 254.54,-181.62 251.04,-191.62 258.04,-191.62"/>
</g>
<!-- [root] provider[&quot;registry.terraform.io/hashicorp/random&quot;] (close) -->
<g id="node9" class="node">
<title>[root] provider[&quot;registry.terraform.io/hashicorp/random&quot;] (close)</title>
<ellipse fill="none" stroke="black" cx="588.54" cy="-306" rx="252.49" ry="18"/>
<text text-anchor="middle" x="588.54" y="-300.95" font-family="Times,serif" font-size="14.00">[root] provider[&quot;registry.terraform.io/hashicorp/random&quot;] (close)</text>
</g>
<!-- [root] provider[&quot;registry.terraform.io/hashicorp/random&quot;] (close)&#45;&gt;[root] random_string.random -->
<g id="edge4" class="edge">
<title>[root] provider[&quot;registry.terraform.io/hashicorp/random&quot;] (close)&#45;&gt;[root] random_string.random</title>
<path fill="none" stroke="black" d="M625.23,-287.88C644.97,-278.67 669.54,-267.2 690.76,-257.3"/>
<polygon fill="black" stroke="black" points="692.23,-260.47 699.81,-253.07 689.27,-254.13 692.23,-260.47"/>
</g>
<!-- [root] provider[&quot;registry.terraform.io/hashicorp/random&quot;] (close)&#45;&gt;[root] random_string.varx -->
<g id="edge5" class="edge">
<title>[root] provider[&quot;registry.terraform.io/hashicorp/random&quot;] (close)&#45;&gt;[root] random_string.varx</title>
<path fill="none" stroke="black" d="M588.54,-287.7C588.54,-280.41 588.54,-271.73 588.54,-263.54"/>
<polygon fill="black" stroke="black" points="592.04,-263.62 588.54,-253.62 585.04,-263.62 592.04,-263.62"/>
</g>
<!-- [root] root -->
<g id="node10" class="node">
<title>[root] root</title>
<ellipse fill="none" stroke="black" cx="281.54" cy="-378" rx="49.3" ry="18"/>
<text text-anchor="middle" x="281.54" y="-372.95" font-family="Times,serif" font-size="14.00">[root] root</text>
</g>
<!-- [root] root&#45;&gt;[root] var.location -->
<g id="edge12" class="edge">
<title>[root] root&#45;&gt;[root] var.location</title>
<path fill="none" stroke="black" d="M265.77,-360.76C257.51,-352.27 247.23,-341.68 237.97,-332.15"/>
<polygon fill="black" stroke="black" points="240.71,-329.94 231.23,-325.21 235.69,-334.82 240.71,-329.94"/>
</g>
<!-- [root] root&#45;&gt;[root] provider[&quot;registry.terraform.io/hashicorp/azurerm&quot;] (close) -->
<g id="edge10" class="edge">
<title>[root] root&#45;&gt;[root] provider[&quot;registry.terraform.io/hashicorp/azurerm&quot;] (close)</title>
<path fill="none" stroke="black" d="M278.23,-359.59C273.67,-335.61 265.4,-292.14 259.94,-263.42"/>
<polygon fill="black" stroke="black" points="263.38,-262.77 258.08,-253.6 256.51,-264.08 263.38,-262.77"/>
</g>
<!-- [root] root&#45;&gt;[root] provider[&quot;registry.terraform.io/hashicorp/random&quot;] (close) -->
<g id="edge11" class="edge">
<title>[root] root&#45;&gt;[root] provider[&quot;registry.terraform.io/hashicorp/random&quot;] (close)</title>
<path fill="none" stroke="black" d="M322.62,-367.63C368.83,-357.1 445.11,-339.7 504.15,-326.24"/>
<polygon fill="black" stroke="black" points="504.89,-329.66 513.86,-324.03 503.33,-322.84 504.89,-329.66"/>
</g>
</g>
</svg>
